<svg xmlns="http://www.w3.org/2000/svg" viewBox="0 0 100 100" fill="none" shape-rendering="auto"><metadata xmlns:rdf="http://www.w3.org/1999/02/22-rdf-syntax-ns#" xmlns:xsi="http://www.w3.org/2001/XMLSchema-instance" xmlns:dc="http://purl.org/dc/elements/1.1/" xmlns:dcterms="http://purl.org/dc/terms/"><rdf:RDF><rdf:Description><dc:title>Thumbs</dc:title><dc:creator>DiceBear</dc:creator><dc:source xsi:type="dcterms:URI">https://www.dicebear.com</dc:source><dcterms:license xsi:type="dcterms:URI">https://creativecommons.org/publicdomain/zero/1.0/</dcterms:license><dc:rights>„Thumbs” (https://www.dicebear.com) by „DiceBear”, licensed under „CC0 1.0” (https://creativecommons.org/publicdomain/zero/1.0/)</dc:rights></rdf:Description></rdf:RDF></metadata><mask id="viewboxMask"><rect width="100" height="100" rx="0" ry="0" x="0" y="0" fill="#fff" /></mask><g mask="url(#viewboxMask)"><rect fill="#0a5b83" width="100" height="100" x="0" y="0" /><g transform="translate(-4, 3) rotate(5 50 70)"><path d="M95 53.33C95 29.4 74.85 10 50 10S5 29.4 5 53.33V140h90V53.33Z" fill="#f1f4dc"/><g transform="translate(29 33)"><g transform="translate(-11, 11) rotate(15 21 21)"><g transform="translate(0 3)"><path d="M11 8c0 2.2-1.34 4-3 4s-3-1.8-3-4 1.34-4 3-4 3 1.8 3 4ZM31.5 5C28.29 5 27 6.36 27 7.04c0 3.4 1.29 1.35 4.5 1.35S36 10.43 36 7.04C36 6.36 34.71 5 31.5 5Z" fill="#000000"/></g><g transform="translate(6 25)"><path d="M15.2 3.84c0-.67-4.2-2-4.2-2.67 0-.66 7 .67 7 2.67S13.8 6.5 13.8 6.5s4.2.67 4.2 2.66c0 2-7 3.33-7 2.67 0-.67 4.2-2 4.2-2.67 0-.66-3.5-1.33-3.5-2.66s3.5-2 3.5-2.66Z" fill="#000000"/></g></g></g></g></g></svg>