<svg xmlns="http://www.w3.org/2000/svg" viewBox="0 0 100 100" fill="none" shape-rendering="auto"><metadata xmlns:rdf="http://www.w3.org/1999/02/22-rdf-syntax-ns#" xmlns:xsi="http://www.w3.org/2001/XMLSchema-instance" xmlns:dc="http://purl.org/dc/elements/1.1/" xmlns:dcterms="http://purl.org/dc/terms/"><rdf:RDF><rdf:Description><dc:title>Thumbs</dc:title><dc:creator>DiceBear</dc:creator><dc:source xsi:type="dcterms:URI">https://www.dicebear.com</dc:source><dcterms:license xsi:type="dcterms:URI">https://creativecommons.org/publicdomain/zero/1.0/</dcterms:license><dc:rights>„Thumbs” (https://www.dicebear.com) by „DiceBear”, licensed under „CC0 1.0” (https://creativecommons.org/publicdomain/zero/1.0/)</dc:rights></rdf:Description></rdf:RDF></metadata><mask id="viewboxMask"><rect width="100" height="100" rx="0" ry="0" x="0" y="0" fill="#fff" /></mask><g mask="url(#viewboxMask)"><rect fill="#f1f4dc" width="100" height="100" x="0" y="0" /><g transform="translate(0, -2) rotate(18 50 70)"><path d="M95 53.33C95 29.4 74.85 10 50 10S5 29.4 5 53.33V140h90V53.33Z" fill="#f88c49"/><g transform="translate(29 33)"><g transform="translate(-7, -12) rotate(13 21 21)"><g transform="translate(0 3)"><path d="M15 8c0 3.31-1.34 6-3 6s-3-2.69-3-6 1.34-6 3-6 3 2.69 3 6ZM33 8c0 3.31-1.34 6-3 6s-3-2.69-3-6 1.34-6 3-6 3 2.69 3 6Z" fill="#ffffff"/></g><g transform="translate(6 25)"><path d="M15 11C4.52 11 2.42 2.82 3.12 2.14 3.82 1.46 8.02 3.5 15 3.5c6.99 0 11.18-2.04 11.88-1.36.7.68-1.4 8.86-11.88 8.86Z" fill="#ffffff"/></g></g></g></g></g></svg>