<svg xmlns="http://www.w3.org/2000/svg" viewBox="0 0 100 100" fill="none" shape-rendering="auto"><metadata xmlns:rdf="http://www.w3.org/1999/02/22-rdf-syntax-ns#" xmlns:xsi="http://www.w3.org/2001/XMLSchema-instance" xmlns:dc="http://purl.org/dc/elements/1.1/" xmlns:dcterms="http://purl.org/dc/terms/"><rdf:RDF><rdf:Description><dc:title>Thumbs</dc:title><dc:creator>DiceBear</dc:creator><dc:source xsi:type="dcterms:URI">https://www.dicebear.com</dc:source><dcterms:license xsi:type="dcterms:URI">https://creativecommons.org/publicdomain/zero/1.0/</dcterms:license><dc:rights>„Thumbs” (https://www.dicebear.com) by „DiceBear”, licensed under „CC0 1.0” (https://creativecommons.org/publicdomain/zero/1.0/)</dc:rights></rdf:Description></rdf:RDF></metadata><mask id="viewboxMask"><rect width="100" height="100" rx="0" ry="0" x="0" y="0" fill="#fff" /></mask><g mask="url(#viewboxMask)"><rect fill="#c0aede" width="100" height="100" x="0" y="0" /><g transform="translate(-4, -5) rotate(8 50 70)"><path d="M95 53.33C95 29.4 74.85 10 50 10S5 29.4 5 53.33V140h90V53.33Z" fill="#69d2e7"/><g transform="translate(29 33)"><g transform="translate(2, 6) rotate(-12 21 21)"><g transform="translate(0 2)"><path d="M14 8c0 3.31-1.34 6-3 6s-3-2.69-3-6 1.34-6 3-6 3 2.69 3 6ZM34 8c0 3.31-1.34 6-3 6s-3-2.69-3-6 1.34-6 3-6 3 2.69 3 6Z" fill="#ffffff"/></g><g transform="translate(6 26)"><path d="M15 14C1.9 14-.72 1.29.15.23 1.03-.83 6.27 2.11 15 2.11S28.97-.83 29.85.23C30.72 1.3 28.1 14 15 14Z" fill="transparent"/></g></g></g></g></g></svg>